<svg width="24" height="24" viewBox="0 0 24 24" fill="none" xmlns="http://www.w3.org/2000/svg">
<path fill-rule="evenodd" clip-rule="evenodd" d="M1.50004 11.9998C1.50004 11.8009 1.57906 11.6102 1.71971 11.4695C1.86036 11.3289 2.05113 11.2498 2.25004 11.2498H19.9395L15.219 6.53083C15.1493 6.4611 15.094 6.37832 15.0563 6.28721C15.0185 6.1961 14.9991 6.09845 14.9991 5.99983C14.9991 5.90122 15.0185 5.80357 15.0563 5.71246C15.094 5.62135 15.1493 5.53857 15.219 5.46883C15.2888 5.3991 15.3716 5.34379 15.4627 5.30605C15.5538 5.26831 15.6514 5.24889 15.75 5.24889C15.8487 5.24889 15.9463 5.26831 16.0374 5.30605C16.1285 5.34379 16.2113 5.3991 16.281 5.46883L22.281 11.4688C22.3509 11.5385 22.4063 11.6213 22.4441 11.7124C22.4819 11.8035 22.5014 11.9012 22.5014 11.9998C22.5014 12.0985 22.4819 12.1962 22.4441 12.2873C22.4063 12.3784 22.3509 12.4612 22.281 12.5308L16.281 18.5308C16.2113 18.6006 16.1285 18.6559 16.0374 18.6936C15.9463 18.7314 15.8487 18.7508 15.75 18.7508C15.6514 18.7508 15.5538 18.7314 15.4627 18.6936C15.3716 18.6559 15.2888 18.6006 15.219 18.5308C15.1493 18.4611 15.094 18.3783 15.0563 18.2872C15.0185 18.1961 14.9991 18.0984 14.9991 17.9998C14.9991 17.9012 15.0185 17.8036 15.0563 17.7125C15.094 17.6213 15.1493 17.5386 15.219 17.4688L19.9395 12.7498H2.25004C2.05113 12.7498 1.86036 12.6708 1.71971 12.5302C1.57906 12.3895 1.50004 12.1987 1.50004 11.9998Z" fill="white"/>
</svg>
