<svg width="48" height="49" viewBox="0 0 48 49" fill="none" xmlns="http://www.w3.org/2000/svg">
<path fill-rule="evenodd" clip-rule="evenodd" d="M6.68739 30.9005C5.77086 26.9932 5.77087 22.9268 6.68739 19.0195C8.01099 13.3768 12.4168 8.97095 18.0595 7.64736C21.9668 6.73083 26.0332 6.73083 29.9405 7.64736C35.5832 8.97095 39.989 13.3768 41.3126 19.0195C42.2291 22.9268 42.2291 26.9932 41.3126 30.9005C39.989 36.5431 35.5832 40.949 29.9405 42.2726C26.0332 43.1891 21.9668 43.1891 18.0595 42.2726C12.4168 40.949 8.01098 36.5431 6.68739 30.9005ZM22.8977 19.3612C22.4491 18.9126 21.7217 18.9126 21.2731 19.3612L16.4867 24.1476C16.2713 24.363 16.1502 24.6552 16.1502 24.9599C16.1502 25.2646 16.2713 25.5568 16.4867 25.7722L21.2731 30.5586C21.7217 31.0072 22.4491 31.0072 22.8977 30.5586C23.3463 30.11 23.3463 29.3827 22.8977 28.934L20.0723 26.1086L30.701 26.1086C31.3354 26.1086 31.8497 25.5943 31.8497 24.9599C31.8497 24.3255 31.3354 23.8112 30.701 23.8112L20.0723 23.8112L22.8977 20.9858C23.3463 20.5372 23.3463 19.8098 22.8977 19.3612Z" fill="#FE5B3E"/>
</svg>
